<?xml version="1.0" encoding="UTF-8"?>
<!DOCTYPE svg PUBLIC "-//W3C//DTD SVG 1.1//EN" "http://www.w3.org/Graphics/SVG/1.1/DTD/svg11.dtd">
<!-- Creator: CorelDRAW 2018 (64 Bit Versão de avaliação) -->
<svg xmlns="http://www.w3.org/2000/svg" xml:space="preserve" width="0.46566cm" height="0.41021cm" version="1.1" shape-rendering="geometricPrecision" text-rendering="geometricPrecision" image-rendering="optimizeQuality" fill-rule="evenodd" clip-rule="evenodd"
viewBox="0 0 8.52 7.51"
 xmlns:xlink="http://www.w3.org/1999/xlink">
 <g id="Camada_x0020_1">
  <metadata id="CorelCorpID_0Corel-Layer"/>
  <path fill="#7526FE" d="M-0 0.82l0.01 0.24c-0,0.06 0.01,0.12 0.01,0.17l0.01 0.17c0.01,0.11 0.02,0.23 0.03,0.34l0.04 0.51c0.01,0.11 0.02,0.22 0.03,0.33 0.01,0.05 0.01,0.12 0.02,0.17l0.03 0.25c0,0.03 0.01,0.05 0.01,0.08 0.02,0.16 0.04,0.3 0.1,0.45 0.07,0.17 0.17,0.38 0.3,0.51 0.04,0.04 0.07,0.08 0.11,0.11l0.13 0.1c0.04,0.03 0.07,0.05 0.11,0.07 0.07,0.05 0.16,0.09 0.24,0.12 0.18,0.08 0.37,0.13 0.58,0.15 0.08,0.01 0.37,0.04 0.47,0.02 0.05,-0.01 0.11,-0 0.17,-0.01 0.02,-0 0.06,-0.01 0.09,-0.01l0 0.01c-0.05,0 -0.1,0.02 -0.14,0.03 -0.1,0.03 -0.24,0.06 -0.33,0.1l-0.19 0.07c-0.12,0.05 -0.23,0.11 -0.34,0.18 -0.07,0.04 -0.13,0.1 -0.2,0.15 -0.06,0.05 -0.12,0.12 -0.16,0.18 -0.05,0.07 -0.09,0.14 -0.12,0.22 -0.06,0.15 -0.06,0.32 -0.03,0.48 0.03,0.14 0.08,0.26 0.15,0.38 0.07,0.13 0.18,0.27 0.28,0.37l0.27 0.27c0.13,0.1 0.21,0.18 0.37,0.27 0.43,0.26 0.9,0.3 1.3,-0.03 0.01,-0.01 0.02,-0.01 0.03,-0.02l0.14 -0.13c0.09,-0.09 0.17,-0.2 0.24,-0.31 0.04,-0.06 0.09,-0.13 0.12,-0.2 0.01,-0.03 0.03,-0.05 0.04,-0.07 0.02,-0.05 0.05,-0.09 0.07,-0.14 0.02,-0.05 0.04,-0.1 0.07,-0.15 0.05,-0.1 0.15,-0.37 0.18,-0.47 0.01,-0.03 0.02,-0.05 0.03,-0.08 0.01,-0.02 0.01,-0.06 0.03,-0.08 0.02,0.02 0.05,0.13 0.06,0.15 0.04,0.12 0.12,0.35 0.18,0.47l0.14 0.29c0.07,0.14 0.16,0.28 0.25,0.4l0.12 0.15c0.01,0.01 0.02,0.02 0.03,0.03 0.01,0.01 0.02,0.02 0.03,0.03l0.08 0.08c0.05,0.05 0.12,0.1 0.19,0.14 0.1,0.06 0.19,0.1 0.3,0.13 0.29,0.07 0.57,-0.02 0.82,-0.15 0.12,-0.06 0.25,-0.15 0.35,-0.24l0.15 -0.13c0.02,-0.02 0.03,-0.03 0.05,-0.05l0.1 -0.09c0.05,-0.05 0.09,-0.1 0.14,-0.15 0.05,-0.05 0.09,-0.11 0.13,-0.17 0.11,-0.15 0.2,-0.36 0.23,-0.54 0.01,-0.09 0.01,-0.18 -0,-0.27 -0,-0.02 -0.01,-0.06 -0.02,-0.08 -0.04,-0.14 -0.11,-0.26 -0.21,-0.38 -0.02,-0.02 -0.03,-0.03 -0.04,-0.05 -0.02,-0.02 -0.03,-0.03 -0.05,-0.05 -0.07,-0.06 -0.14,-0.12 -0.22,-0.17 -0.22,-0.13 -0.43,-0.22 -0.68,-0.29 -0.05,-0.02 -0.1,-0.03 -0.15,-0.04 -0.05,-0.01 -0.11,-0.03 -0.16,-0.03l0.16 0.01c0.06,0.01 0.15,0.01 0.22,0.01 0.44,0 0.91,-0.11 1.26,-0.37 0.29,-0.22 0.49,-0.52 0.59,-0.87 0.03,-0.1 0.04,-0.21 0.05,-0.31l0.07 -0.66c0.01,-0.11 0.02,-0.23 0.03,-0.33 0.01,-0.09 0.01,-0.16 0.02,-0.25 0.01,-0.09 0.01,-0.17 0.02,-0.26 0,-0.03 0,-0.06 0.01,-0.08l0.01 -0.17c0,-0.09 0.02,-0.17 0.02,-0.26l0.01 -0.23c0,-0.26 -0.05,-0.45 -0.17,-0.61 -0.04,-0.05 -0.09,-0.09 -0.14,-0.12 -0.04,-0.02 -0.08,-0.04 -0.12,-0.05 -0.29,-0.09 -0.67,0.05 -0.93,0.18l-0.41 0.25c-0.07,0.05 -0.13,0.09 -0.19,0.14l-0.35 0.31c-0.08,0.08 -0.22,0.21 -0.28,0.28l-0.11 0.11c-0.05,0.05 -0.08,0.1 -0.13,0.15 -0.08,0.08 -0.36,0.43 -0.43,0.52 -0.02,0.02 -0.03,0.04 -0.05,0.06l-0.28 0.38c-0.06,0.09 -0.12,0.17 -0.18,0.26l-0.42 0.69c-0.01,0.02 -0.02,0.05 -0.04,0.07l-0.02 0.04c-0,0 -0,0 -0,0 -0.01,0.02 -0.01,0.02 -0.01,0.03l-0.01 0c-0,-0.03 -0.09,-0.18 -0.11,-0.22 -0.06,-0.12 -0.17,-0.31 -0.25,-0.42 -0.09,-0.13 -0.17,-0.27 -0.26,-0.4l-0.91 -1.15c-0.04,-0.05 -0.09,-0.09 -0.13,-0.14 -0.05,-0.06 -0.12,-0.12 -0.18,-0.18l-0.05 -0.04c-0.07,-0.06 -0.16,-0.16 -0.23,-0.21 -0.08,-0.06 -0.16,-0.14 -0.24,-0.2l-0.32 -0.23c-0.16,-0.1 -0.35,-0.19 -0.53,-0.25 -0.05,-0.02 -0.12,-0.04 -0.17,-0.05 -0.19,-0.04 -0.4,-0.05 -0.57,0.05 -0.24,0.14 -0.32,0.44 -0.32,0.73z"/>
 </g>
</svg>
