<?xml version="1.0" encoding="UTF-8"?>
<!DOCTYPE svg PUBLIC "-//W3C//DTD SVG 1.1//EN" "http://www.w3.org/Graphics/SVG/1.1/DTD/svg11.dtd">
<!-- Creator: CorelDRAW 2018 (64 Bit Versão de avaliação) -->
<svg xmlns="http://www.w3.org/2000/svg" xml:space="preserve" width="0.174252in" height="0.174673in" version="1.1" shape-rendering="geometricPrecision" text-rendering="geometricPrecision" image-rendering="optimizeQuality" fill-rule="evenodd" clip-rule="evenodd"
viewBox="0 0 6.15 6.17"
 xmlns:xlink="http://www.w3.org/1999/xlink">
 <g id="Camada_x0020_1">
  <metadata id="CorelCorpID_0Corel-Layer"/>
  <g id="_2154425246368">
   <g id="_2154361373104">
    <g id="_2623394409152">
     <path fill="white" d="M3.3 6.15c0.02,-0.3 0,-0.64 0,-0.95 0,-0.32 0,-0.64 0,-0.96 0,-0.35 -0.01,-0.56 0.17,-0.8 0.13,-0.18 0.32,-0.3 0.64,-0.31 0.32,-0.01 0.55,0.13 0.66,0.3 0.16,0.25 0.13,0.48 0.13,0.82 0,0.32 0,0.64 0,0.96 0,0.29 -0.02,0.67 0.01,0.94l1.24 0c0.02,-0.31 0,-0.66 0,-0.97 0,-0.32 0,-0.65 0,-0.97 0,-0.75 0.04,-1.07 -0.31,-1.62 -0.12,-0.18 -0.32,-0.33 -0.53,-0.44 -0.23,-0.12 -0.5,-0.17 -0.8,-0.16 -0.29,0.01 -0.54,0.09 -0.76,0.21 -0.12,0.07 -0.18,0.12 -0.28,0.2 -0.05,0.04 -0.09,0.07 -0.13,0.12 -0.02,0.03 -0.07,0.1 -0.1,0.12l-0.01 -0.58 -1.16 0.01 0 4.09 1.23 -0.01 0.01 -0.01 0 0z"/>
     <path fill="white" d="M0.1 6.16l1.27 0 0 -4.09c-0.11,-0.01 -1.2,-0.01 -1.27,0.01l0 4.09 0 0 0 -0z"/>
     <path fill="white" d="M0.01 0.83c0.05,0.36 0.39,0.68 0.81,0.62 0.38,-0.05 0.69,-0.39 0.63,-0.82 -0.05,-0.36 -0.39,-0.68 -0.82,-0.62 -0.36,0.05 -0.68,0.39 -0.62,0.82l-0 0z"/>
    </g>
   </g>
  </g>
 </g>
</svg>
