<?xml version="1.0" encoding="UTF-8"?>
<!DOCTYPE svg PUBLIC "-//W3C//DTD SVG 1.1//EN" "http://www.w3.org/Graphics/SVG/1.1/DTD/svg11.dtd">
<!-- Creator: CorelDRAW 2018 (64 Bit Versão de avaliação) -->
<svg xmlns="http://www.w3.org/2000/svg" xml:space="preserve" width="1.85154in" height="1.61717in" version="1.1" shape-rendering="geometricPrecision" text-rendering="geometricPrecision" image-rendering="optimizeQuality" fill-rule="evenodd" clip-rule="evenodd"
viewBox="0 0 1821.46 1590.89"
 xmlns:xlink="http://www.w3.org/1999/xlink">
 <g id="Camada_x0020_1">
  <metadata id="CorelCorpID_0Corel-Layer"/>
  <path fill="white" d="M0.07 171.39l2.13 50.89c0,12.74 2.13,25.42 2.13,36.06l2.13 36.06c2.13,23.33 4.23,48.75 6.36,72.08l8.45 108.15c2.13,23.33 4.23,46.66 6.36,69.99 2.13,10.59 2.13,25.42 4.23,36.06l6.36 53.03c0,6.36 2.13,10.59 2.13,16.97 4.23,33.93 8.45,63.63 21.2,95.41 14.83,36.06 36.06,80.58 63.63,108.15 8.45,8.45 14.83,16.97 23.33,23.33l27.56 21.2c8.45,6.36 14.83,10.59 23.33,14.83 14.83,10.59 33.93,19.1 50.89,25.42 38.16,16.97 78.44,27.56 122.97,31.79 16.97,2.13 78.44,8.45 99.64,4.23 10.59,-2.13 23.33,0 36.06,-2.13 4.23,0 12.74,-2.13 19.1,-2.13l0 2.13c-10.59,0 -21.2,4.23 -29.69,6.36 -21.2,6.36 -50.89,12.74 -69.99,21.2l-40.3 14.83c-25.42,10.59 -48.75,23.33 -72.08,38.16 -14.83,8.45 -27.56,21.2 -42.39,31.79 -12.72,10.59 -25.42,25.42 -33.93,38.16 -10.59,14.83 -19.1,29.69 -25.42,46.66 -12.72,31.79 -12.72,67.86 -6.36,101.78 6.36,29.69 16.97,55.11 31.79,80.58 14.83,27.57 38.16,57.26 59.36,78.46l57.26 57.26c27.56,21.2 44.53,38.16 78.44,57.26 91.19,55.12 190.84,63.63 275.66,-6.36 2.13,-2.13 4.23,-2.13 6.36,-4.23l29.69 -27.56c19.1,-19.1 36.06,-42.39 50.89,-65.72 8.45,-12.74 19.1,-27.56 25.42,-42.39 2.13,-6.36 6.36,-10.59 8.45,-14.83 4.23,-10.59 10.59,-19.1 14.83,-29.69 4.23,-10.61 8.45,-21.2 14.83,-31.79 10.59,-21.2 31.79,-78.44 38.16,-99.64 2.13,-6.36 4.23,-10.59 6.36,-16.97 2.13,-4.23 2.13,-12.72 6.36,-16.97 4.23,4.23 10.59,27.56 12.72,31.79 8.45,25.42 25.42,74.22 38.16,99.64l29.69 61.5c14.83,29.69 33.93,59.36 53.02,84.83l25.42 31.79c2.13,2.13 4.23,4.23 6.36,6.36 2.13,2.13 4.23,4.23 6.36,6.36l16.97 16.97c10.59,10.59 25.42,21.2 40.3,29.69 21.2,12.72 40.29,21.2 63.63,27.56 61.5,14.83 120.84,-4.23 173.88,-31.79 25.42,-12.72 53.02,-31.79 74.22,-50.89l31.79 -27.56c4.23,-4.23 6.36,-6.36 10.59,-10.59l21.2 -19.1c10.59,-10.59 19.1,-21.2 29.69,-31.79 10.61,-10.61 19.1,-23.33 27.57,-36.06 23.33,-31.79 42.39,-76.31 48.75,-114.52 2.13,-19.1 2.13,-38.16 0,-57.26 0,-4.23 -2.13,-12.72 -4.23,-16.97 -8.45,-29.69 -23.33,-55.11 -44.53,-80.58 -4.23,-4.23 -6.36,-6.36 -8.45,-10.61 -4.23,-4.23 -6.36,-6.36 -10.61,-10.59 -14.83,-12.72 -29.69,-25.42 -46.66,-36.06 -46.66,-27.56 -91.19,-46.66 -144.17,-61.5 -10.59,-4.23 -21.2,-6.36 -31.79,-8.45 -10.59,-2.13 -23.33,-6.36 -33.93,-6.36l33.93 2.13c12.74,2.13 31.79,2.13 46.66,2.13 93.28,0 192.96,-23.33 267.15,-78.44 61.5,-46.66 103.88,-110.25 125.11,-184.47 6.36,-21.2 8.45,-44.53 10.59,-65.72l14.83 -139.94c2.13,-23.33 4.23,-48.75 6.36,-69.99 2.13,-19.1 2.13,-33.93 4.23,-53.02 2.13,-19.1 2.13,-36.06 4.23,-55.12 0,-6.36 0,-12.72 2.13,-16.97l2.13 -36.06c0,-19.1 4.23,-36.06 4.23,-55.12l2.13 -48.75c0,-55.12 -10.59,-95.41 -36.06,-129.34 -8.45,-10.59 -19.1,-19.1 -29.69,-25.42 -8.45,-4.23 -16.97,-8.45 -25.42,-10.59 -61.5,-19.1 -142.07,10.59 -197.2,38.16l-86.92 53.02c-14.83,10.59 -27.57,19.1 -40.3,29.69l-74.22 65.72c-16.97,16.97 -46.66,44.53 -59.36,59.36l-23.33 23.33c-10.59,10.59 -16.97,21.2 -27.56,31.79 -16.97,16.97 -76.31,91.19 -91.19,110.25 -4.23,4.23 -6.36,8.45 -10.59,12.72l-59.36 80.6c-12.72,19.1 -25.42,36.06 -38.16,55.11l-89.05 146.3c-2.13,4.23 -4.23,10.61 -8.45,14.83l-4.23 8.45c0,0 0,0 0,0 -2.13,4.23 -2.13,4.23 -2.13,6.36l-2.13 0c0,-6.36 -19.1,-38.16 -23.33,-46.66 -12.72,-25.42 -36.06,-65.72 -53.02,-89.05 -19.1,-27.56 -36.06,-57.26 -55.11,-84.83l-192.96 -243.87c-8.45,-10.59 -19.1,-19.1 -27.56,-29.69 -10.61,-12.74 -25.42,-25.42 -38.16,-38.16l-10.59 -8.45c-14.83,-12.72 -33.93,-33.93 -48.75,-44.53 -16.97,-12.74 -33.93,-29.69 -50.89,-42.39l-67.86 -48.75c-33.93,-21.2 -74.22,-40.3 -112.38,-53.02 -10.59,-4.23 -25.42,-8.45 -36.06,-10.59 -40.3,-8.45 -84.83,-10.61 -120.85,10.59 -50.89,29.69 -67.86,93.28 -67.86,154.78l-10.72 -0.04 0 0 0.07 0z"/>
 </g>
</svg>
