<?xml version="1.0" encoding="UTF-8"?>
<!DOCTYPE svg PUBLIC "-//W3C//DTD SVG 1.1//EN" "http://www.w3.org/Graphics/SVG/1.1/DTD/svg11.dtd">
<!-- Creator: CorelDRAW 2018 (64 Bit Versão de avaliação) -->
<svg xmlns="http://www.w3.org/2000/svg" xml:space="preserve" width="0.179791in" height="0.137079in" version="1.1" shape-rendering="geometricPrecision" text-rendering="geometricPrecision" image-rendering="optimizeQuality" fill-rule="evenodd" clip-rule="evenodd"
viewBox="0 0 179.79 137.08"
 xmlns:xlink="http://www.w3.org/1999/xlink">
 <g id="Camada_x0020_1">
  <metadata id="CorelCorpID_0Corel-Layer"/>
  <g id="_2154360957392">
   <g id="_2623573402512">
    <path fill="white" d="M9.24 1.6c0.4,1.74 18.61,19.01 19.68,20.22 3.48,3.48 58.9,59.3 60.64,60.37 1.47,-1.07 3.61,-3.35 4.95,-4.82 1.87,-1.87 3.48,-3.08 5.22,-4.95l7.76 -7.36c0.94,-0.94 1.61,-1.74 2.68,-2.68l58.1 -58.1c0.94,-0.94 2.01,-1.47 2.41,-2.94 -1.2,-0.54 -3.75,-1.34 -5.62,-1.34l-150.2 0c-1.87,0 -4.42,0.8 -5.62,1.34l0 0.26z"/>
    <path fill="white" d="M9.24 135.74c1.2,0.54 3.75,1.34 5.62,1.34l150.2 0c1.87,0 4.42,-0.8 5.62,-1.34 -0.4,-1.61 -12.98,-13.52 -14.46,-15 -3.48,-3.48 -42.97,-43.51 -44.85,-44.71l-17.94 17.14c-0.94,1.07 -1.87,1.61 -3.48,1.74 -2.81,0.13 -4.42,-2.14 -6.02,-3.75l-15.4 -15.13c-1.74,1.2 -49.13,49 -55.69,55.56 -1.07,1.07 -3.21,2.54 -3.61,4.15z"/>
    <path fill="white" d="M118.74 68.67c1.2,1.74 49,49.13 55.56,55.69 1.07,1.07 2.54,3.21 4.15,3.61 0.54,-1.2 1.34,-3.75 1.34,-5.62l0 -107.36c0,-1.87 -0.8,-4.42 -1.34,-5.62 -1.61,0.4 -13.52,12.98 -15,14.46 -5.09,5.09 -9.91,9.91 -14.86,14.86 -2.14,2.14 -28.65,28.25 -29.72,29.85l-0.13 0.14z"/>
    <path fill="white" d="M0.13 14.99l0 107.36c0,1.87 0.8,4.42 1.34,5.62 1.61,-0.4 13.52,-12.98 15,-14.46 5.09,-5.09 9.91,-9.91 14.86,-14.86 2.14,-2.14 28.65,-28.25 29.72,-29.85 -1.2,-1.74 -49,-49.13 -55.56,-55.69 -1.07,-1.07 -2.54,-3.21 -4.15,-3.61 -0.54,1.2 -1.34,3.75 -1.34,5.62l0.13 -0.14z"/>
   </g>
  </g>
 </g>
</svg>
