<?xml version="1.0" encoding="UTF-8"?>
<!DOCTYPE svg PUBLIC "-//W3C//DTD SVG 1.1//EN" "http://www.w3.org/Graphics/SVG/1.1/DTD/svg11.dtd">
<!-- Creator: CorelDRAW 2018 (64 Bit Versão de avaliação) -->
<svg xmlns="http://www.w3.org/2000/svg" xml:space="preserve" width="0.44504cm" height="0.44796cm" version="1.1" shape-rendering="geometricPrecision" text-rendering="geometricPrecision" image-rendering="optimizeQuality" fill-rule="evenodd" clip-rule="evenodd"
viewBox="0 0 9.22 9.28"
 xmlns:xlink="http://www.w3.org/1999/xlink">
 <g id="Camada_x0020_1">
  <metadata id="CorelCorpID_0Corel-Layer"/>
  <g id="_2623573647312">
   <path fill="#7526FE" d="M1.07 8.22c0.07,-0.27 0.14,-0.57 0.22,-0.82 0.1,-0.31 0.18,-0.5 0.04,-0.82 -0.11,-0.24 -0.22,-0.42 -0.32,-0.69 -0.52,-1.41 -0.09,-3.08 1,-4.06 0.09,-0.08 0.15,-0.15 0.26,-0.24 1.26,-1 3.19,-1.1 4.52,-0.15 0.64,0.46 1.03,0.89 1.36,1.64 0.59,1.31 0.36,2.78 -0.48,3.89 -0.16,0.21 -0.31,0.34 -0.48,0.51 -0.07,0.07 -0.07,0.06 -0.14,0.12 -0.81,0.66 -1.81,0.95 -2.88,0.83 -0.63,-0.07 -1,-0.28 -1.5,-0.51 -0.23,-0.11 -0.54,0.04 -0.77,0.1 -0.27,0.07 -0.54,0.14 -0.81,0.21zm3.58 -8.22c-1.09,-0 -2.17,0.45 -2.83,0.96 -0.49,0.38 -0.4,0.34 -0.73,0.69 -0.19,0.2 -0.43,0.61 -0.56,0.85 -0.63,1.17 -0.65,2.63 -0.17,3.83 0.08,0.21 0.28,0.49 0.24,0.71 -0.09,0.48 -0.45,1.59 -0.6,2.23l1.21 -0.31c0.21,-0.06 1.06,-0.3 1.22,-0.28 0.21,0.03 1.09,0.62 2.48,0.52 0.88,-0.07 1.67,-0.36 2.26,-0.76 0.24,-0.17 0.33,-0.25 0.53,-0.41 0.2,-0.16 0.47,-0.49 0.62,-0.7 1.14,-1.59 1.16,-3.55 0.18,-5.17 -0.2,-0.33 -0.44,-0.6 -0.67,-0.84l-0.41 -0.35c-0.72,-0.57 -1.74,-0.96 -2.78,-0.97z"/>
   <path fill="#7526FE" d="M2.91 2.51c-0.46,0.14 -0.81,0.98 -0.46,1.72 0.23,0.48 0.56,0.88 0.89,1.26 0.41,0.46 1.1,0.94 1.66,1.15 0.71,0.26 1.47,0.26 1.81,-0.31 0.09,-0.14 0.13,-0.3 0.13,-0.48 -0,-0.24 -0.42,-0.36 -0.73,-0.5 -0.12,-0.05 -0.33,-0.2 -0.45,-0.14 -0.09,0.04 -0.33,0.39 -0.42,0.5 -0.24,0.28 -1.16,-0.47 -1.36,-0.67 -0.11,-0.12 -0.49,-0.56 -0.51,-0.72 -0.02,-0.14 0.1,-0.19 0.24,-0.39 0.2,-0.29 0.09,-0.43 -0.11,-0.89 -0.05,-0.12 -0.13,-0.33 -0.19,-0.42 -0.08,-0.12 -0.35,-0.14 -0.51,-0.09z"/>
  </g>
 </g>
</svg>
