<?xml version="1.0" encoding="UTF-8"?>
<!DOCTYPE svg PUBLIC "-//W3C//DTD SVG 1.1//EN" "http://www.w3.org/Graphics/SVG/1.1/DTD/svg11.dtd">
<!-- Creator: CorelDRAW 2018 (64 Bit Versão de avaliação) -->
<svg xmlns="http://www.w3.org/2000/svg" xml:space="preserve" width="1.81313in" height="1.81339in" version="1.1" shape-rendering="geometricPrecision" text-rendering="geometricPrecision" image-rendering="optimizeQuality" fill-rule="evenodd" clip-rule="evenodd"
viewBox="0 0 2036.14 2036.44"
 xmlns:xlink="http://www.w3.org/1999/xlink">
 <g id="Camada_x0020_1">
  <metadata id="CorelCorpID_0Corel-Layer"/>
  <path fill="white" d="M4 1035.42c0,406.38 243.44,810.74 599.52,957.59 26.17,10.08 50.31,24.14 78.44,32.17 38.22,12.05 64.38,-6.05 80.46,-8.06l6.05 -213.26c-128.76,16.08 -261.54,32.17 -335.95,-124.72 -120.69,-249.45 -144.85,-130.77 -156.94,-223.28 120.69,-26.17 171,58.33 221.32,132.79 44.26,64.37 177.05,122.71 267.54,52.33 14.06,-22.13 16.08,-48.29 28.18,-74.41 6.05,-16.08 8.06,-14.06 18.1,-30.2 16.08,-22.13 12.05,-12.05 22.13,-36.19 -305.8,-32.17 -458.66,-191.12 -458.66,-513 0,-150.88 52.33,-189.1 102.6,-283.68 -28.18,-102.6 -20.11,-181.04 14.07,-273.59 177.05,-6.05 225.29,120.69 303.79,102.6 168.99,-38.22 289.68,-38.22 456.65,0 74.41,16.08 118.68,-104.61 303.79,-102.6 48.29,142.82 20.11,146.85 16.08,283.68 48.29,68.4 88.53,124.72 96.54,239.41 16.08,185.07 -38.22,370.18 -195.14,468.75 -70.42,44.26 -166.96,74.41 -261.54,80.46 20.11,44.26 24.14,24.14 44.27,80.46 66.39,193.13 -62.36,504.94 104.61,446.61 138.79,-48.29 243.44,-120.69 344.02,-215.27 132.78,-124.72 261.54,-309.79 305.8,-529.08 18.1,-86.5 28.18,-156.94 26.17,-247.43 -2.02,-215.27 -62.36,-402.34 -173.02,-577.39l-100.57 -130.77c-58.33,-72.43 -211.23,-179.06 -293.7,-221.31 -651.8,-333.94 -1468.59,142.82 -1468.59,927.41l4.03 0 -0.04 -0.04z"/>
 </g>
</svg>
