<?xml version="1.0" encoding="UTF-8"?>
<!DOCTYPE svg PUBLIC "-//W3C//DTD SVG 1.1//EN" "http://www.w3.org/Graphics/SVG/1.1/DTD/svg11.dtd">
<!-- Creator: CorelDRAW 2018 (64 Bit Versão de avaliação) -->
<svg xmlns="http://www.w3.org/2000/svg" xml:space="preserve" width="0.44252cm" height="0.44358cm" version="1.1" shape-rendering="geometricPrecision" text-rendering="geometricPrecision" image-rendering="optimizeQuality" fill-rule="evenodd" clip-rule="evenodd"
viewBox="0 0 11.18 11.21"
 xmlns:xlink="http://www.w3.org/1999/xlink">
 <g id="Camada_x0020_1">
  <metadata id="CorelCorpID_0Corel-Layer"/>
  <g id="_2623394409152">
   <path fill="#7526FE" d="M6 11.19c0.03,-0.55 0,-1.17 0,-1.73 0,-0.58 0,-1.16 0,-1.74 0,-0.64 -0.01,-1.02 0.31,-1.45 0.23,-0.32 0.59,-0.54 1.16,-0.56 0.58,-0.02 1,0.23 1.2,0.55 0.29,0.45 0.24,0.88 0.24,1.49 0,0.58 -0,1.16 -0,1.75 -0,0.52 -0.04,1.21 0.01,1.71l2.25 -0c0.03,-0.56 0,-1.2 0,-1.76 0,-0.59 0,-1.18 0,-1.77 0,-1.36 0.08,-1.95 -0.56,-2.95 -0.21,-0.32 -0.58,-0.6 -0.97,-0.8 -0.41,-0.22 -0.91,-0.31 -1.46,-0.29 -0.53,0.02 -0.98,0.17 -1.38,0.39 -0.22,0.12 -0.33,0.21 -0.51,0.36 -0.09,0.07 -0.16,0.13 -0.23,0.22 -0.04,0.05 -0.13,0.18 -0.19,0.21l-0.01 -1.05 -2.11 0.01 0 7.44 2.24 -0.01z"/>
   <path fill="#7526FE" d="M0.17 11.2l2.3 -0 -0 -7.44c-0.2,-0.02 -2.18,-0.02 -2.3,0.01l0 7.43z"/>
   <path fill="#7526FE" d="M0.01 1.51c0.09,0.65 0.7,1.23 1.48,1.13 0.69,-0.09 1.25,-0.71 1.14,-1.49 -0.09,-0.66 -0.7,-1.24 -1.49,-1.13 -0.66,0.09 -1.24,0.71 -1.13,1.49z"/>
  </g>
 </g>
</svg>
