<?xml version="1.0" encoding="UTF-8"?>
<!DOCTYPE svg PUBLIC "-//W3C//DTD SVG 1.1//EN" "http://www.w3.org/Graphics/SVG/1.1/DTD/svg11.dtd">
<!-- Creator: CorelDRAW 2018 (64 Bit Versão de avaliação) -->
<svg xmlns="http://www.w3.org/2000/svg" xml:space="preserve" width="0.45634cm" height="0.34761cm" version="1.1" shape-rendering="geometricPrecision" text-rendering="geometricPrecision" image-rendering="optimizeQuality" fill-rule="evenodd" clip-rule="evenodd"
viewBox="0 0 13.42 10.22"
 xmlns:xlink="http://www.w3.org/1999/xlink">
 <g id="Camada_x0020_1">
  <metadata id="CorelCorpID_0Corel-Layer"/>
  <g id="_2623573402512">
   <path fill="#7526FE" d="M0.68 0.1c0.03,0.13 1.39,1.42 1.47,1.51 0.26,0.26 4.4,4.43 4.53,4.51 0.11,-0.08 0.27,-0.25 0.37,-0.36 0.14,-0.14 0.26,-0.23 0.39,-0.37l0.58 -0.55c0.07,-0.07 0.12,-0.13 0.2,-0.2l4.34 -4.34c0.07,-0.07 0.15,-0.11 0.18,-0.22 -0.09,-0.04 -0.28,-0.1 -0.42,-0.1l-11.22 0c-0.14,0 -0.33,0.06 -0.42,0.1z"/>
   <path fill="#7526FE" d="M0.68 10.12c0.09,0.04 0.28,0.1 0.42,0.1l11.22 0c0.14,0 0.33,-0.06 0.42,-0.1 -0.03,-0.12 -0.97,-1.01 -1.08,-1.12 -0.26,-0.26 -3.21,-3.25 -3.35,-3.34l-1.34 1.28c-0.07,0.08 -0.14,0.12 -0.26,0.13 -0.21,0.01 -0.33,-0.16 -0.45,-0.28l-1.15 -1.13c-0.13,0.09 -3.67,3.66 -4.16,4.15 -0.08,0.08 -0.24,0.19 -0.27,0.31z"/>
   <path fill="#7526FE" d="M8.86 5.11c0.09,0.13 3.66,3.67 4.15,4.16 0.08,0.08 0.19,0.24 0.31,0.27 0.04,-0.09 0.1,-0.28 0.1,-0.42l0 -8.02c0,-0.14 -0.06,-0.33 -0.1,-0.42 -0.12,0.03 -1.01,0.97 -1.12,1.08 -0.38,0.38 -0.74,0.74 -1.11,1.11 -0.16,0.16 -2.14,2.11 -2.22,2.23z"/>
   <path fill="#7526FE" d="M-0 1.1l0 8.02c0,0.14 0.06,0.33 0.1,0.42 0.12,-0.03 1.01,-0.97 1.12,-1.08 0.38,-0.38 0.74,-0.74 1.11,-1.11 0.16,-0.16 2.14,-2.11 2.22,-2.23 -0.09,-0.13 -3.66,-3.67 -4.15,-4.16 -0.08,-0.08 -0.19,-0.24 -0.31,-0.27 -0.04,0.09 -0.1,0.28 -0.1,0.42z"/>
  </g>
 </g>
</svg>
