<?xml version="1.0" encoding="UTF-8"?>
<!DOCTYPE svg PUBLIC "-//W3C//DTD SVG 1.1//EN" "http://www.w3.org/Graphics/SVG/1.1/DTD/svg11.dtd">
<!-- Creator: CorelDRAW 2018 (64 Bit Versão de avaliação) -->
<svg xmlns="http://www.w3.org/2000/svg" xml:space="preserve" width="1.77871in" height="1.77448in" version="1.1" shape-rendering="geometricPrecision" text-rendering="geometricPrecision" image-rendering="optimizeQuality" fill-rule="evenodd" clip-rule="evenodd"
viewBox="0 0 863.73 861.68"
 xmlns:xlink="http://www.w3.org/1999/xlink">
 <g id="Camada_x0020_1">
  <metadata id="CorelCorpID_0Corel-Layer"/>
  <g id="_2154363323360">
   <g id="_2623582475776">
    <path fill="white" d="M79.82 628.35l0 -397.07c0,-81.88 73.67,-154.54 154.54,-154.54l397.07 0c81.88,0 154.54,73.67 154.54,154.54l0 397.07c0,81.87 -73.67,154.54 -154.54,154.54l-397.07 0c-81.87,0 -154.54,-73.67 -154.54,-154.54zm-77.78 -405.25l0 414.46c0,26.61 11.26,65.49 22.52,88.02l32.76 51.17c19.44,20.47 15.35,19.44 44,40.94 29.68,22.52 85.97,44 123.84,44l414.46 0c26.61,0 65.49,-11.26 88.02,-22.52 64.47,-32.76 106.43,-80.85 127.93,-151.46 3.06,-12.29 8.18,-33.77 8.18,-49.11l0 -414.46c0,-14.32 -4.09,-35.82 -8.18,-48.11 -16.38,-57.31 -45.02,-97.22 -92.11,-132.01 -20.47,-15.35 -50.14,-28.65 -75.73,-35.82 -12.29,-3.06 -33.77,-8.18 -49.11,-8.18l-414.46 0c-14.32,0 -35.82,4.09 -48.11,8.18 -25.59,7.17 -55.26,20.47 -75.73,35.82 -6.14,4.09 -10.23,8.18 -16.38,12.29l-27.64 27.64c-30.7,32.76 -56.29,96.2 -56.29,140.19l2.04 -1.02 0 0z"/>
    <path fill="white" d="M288.57 436.98c0,-34.79 6.14,-63.44 25.59,-90.05 25.58,-34.79 68.56,-61.4 112.57,-61.4 46.05,0 77.78,11.26 108.49,42.99 11.26,11.26 22.52,24.56 28.65,39.91 18.41,46.06 18.41,77.78 0,123.83 -10.23,26.61 -44,58.32 -68.56,68.56 -46.06,18.41 -77.78,18.41 -123.83,0 -20.47,-8.18 -42.99,-29.68 -56.29,-47.08 -14.32,-19.44 -26.61,-52.2 -26.61,-77.78l0 1.02 0 -0zm-77.76 -18.43c0,27.64 -1.02,40.93 7.17,68.55 6.14,24.56 19.44,51.17 33.77,70.61 22.52,32.76 50.14,54.23 85.97,72.67 12.29,6.14 23.53,10.23 37.87,14.32 35.82,10.23 79.81,10.23 114.61,0 50.14,-13.3 94.14,-44 123.84,-85.97 8.18,-10.23 13.3,-21.49 19.44,-32.76 60.38,-119.72 -4.09,-271.18 -142.25,-310.08 -63.44,-18.41 -133.04,-5.12 -186.25,32.76 -19.44,14.32 -38.88,32.76 -53.23,53.22 -21.49,29.68 -40.94,78.79 -40.94,116.67l-0.01 0z"/>
    <path fill="white" d="M607.86 197.51c0,18.41 5.12,29.68 15.35,39.91 5.11,5.12 6.14,7.17 14.32,11.26 39.91,19.44 82.9,-7.17 82.9,-51.17 0,-30.7 -26.61,-54.23 -55.26,-55.26 -17.41,0 -32.76,8.18 -41.97,18.41l-10.23 14.32c-3.06,6.14 -5.12,14.32 -5.12,23.53l0 -1.01 0 -0.01z"/>
   </g>
  </g>
 </g>
</svg>
